<svg width="50" height="100"><style>svg { stroke-width: 0.5px; } .no-item, .item { fill-opacity: 0.5; } .hair0 { fill: #ff8; stroke: #ff8; fill-opacity: 0.5; } .hair1 { fill: black; stroke: black; fill-opacity: 0.5; } .hair2 { fill: #884; stroke: #884; fill-opacity: 0.5; } .skin { fill: #da8; stroke: #754; } .shirt { fill: red; stroke: #800; fill-opacity: 0.5; } .trousers, .top { fill: blue; stroke: #008; } .eye { fill: black; } .mouth { fill: #800; } .nail { fill: #da8; stroke: #754; } .metal { fill: silver; } .glass { fill: #f80; fill-opacity: 0.5; stroke: #f80; } .plastic { fill: #8af; fill-opacity: 0.5; stroke: blue; } .fin { fill: #808; stroke: #404; } .ice-cream-cone { fill: #f80; stroke: #840; } .ice-cream { fill: #d62; stroke: #631; } .book { fill: #fff; stroke: #000; } .ball { fill: #f0f; } .parasol { fill: #f00; stroke: #800; } .towel { fill: #808; stroke: #404; } .type0, .type1, .type2 { opacity: 0.3; } .water { fill: #88f; fill-opacity: 0.7; }</style><path d="M25.5 1.4C21.5 1.5 21.3 5 19.5 7.4 21.7 9.8 22 13 22.4 13.4 23.5 14.7 21.6 15.5 20.5 16.5 18.4 18.5 15.6 17.3 14.5 20 12 25.6 12.5 33 11.6 39 11 43.5 12.6 51.6 12.3 53.2 11.4 57.7 14.4 60.3 14.7 57.8 15.3 53.2 15.6 59.3 16.7 57.2 16.4 52.6 17 43.5 16.3 37.6 16 35.2 17.2 32 17.7 30.3 18.5 32 19.3 40.2 19.3 45 19.3 55 19 65 18 75 17.7 80.5 16.6 85.8 15.8 91.2 15.4 93.3 8 90.3 7.8 91.2 7.5 92.8 16.5 99 18.3 97.2 21.8 93.4 22.8 82.4 23.3 74 25.3 68 26.2 57 28 55.3 31 56.8 27.2 68.7 30 76 28 83 30.7 93 28 98.6 27.6 99.5 30.7 100 31.4 99.3 32.7 98 36 97.3 35.2 97 33.3 96 32 96.2 32.2 95.2 32.5 89.5 36.7 84 36 78.4 35.4 70 36.3 64.2 36 56.7 35.7 52 33.7 49.5 33.7 43.7 33.7 37.6 31.4 32.8 33 28.5 32.4 30.5 34.6 41 37 43.3 37.8 44 40.6 42.5 40.4 41.6 39 35.8 37 29 36 22.4 35.5 19.6 30 20 28.3 18 27.4 17.2 26.3 14.8 27 13.6 27.8 12.6 28.2 10 30 7.4 29 4.6 30.2 2 25.5 1.4z" class="skin"/><path d="M18.5 34.2C24.2 35.6 26.6 34.5 32 33.5 32 33.8 32 34 32 34.3 26.8 35.3 24.5 36.8 18.6 35.2 18.5 34.8 18.6 34.6 18.5 34.2z" class="top"/><path d="M18.7 45.3C19 52.3 17.6 59.2 18 66 20.8 65.8 22.4 68.2 25.2 67.8 25.4 64 26 60 28.2 56.7 29 60.4 28.2 64.4 28.4 68.3 31 70 33.3 67.7 36.3 69 35 60.6 38.2 55.4 35 44.6 28.8 44 25 46 18.7 45.3z" class="trousers"/><path d="M19.6 17C17.4 18 16 17.6 14.6 19.3 12 23 12.4 29.2 11.4 34.2 13.4 34.4 14.8 36.2 16.8 36.2 16.6 34.7 17.6 33.5 17.7 32.2 18.8 36.7 19.3 41 18.6 45.3 24.8 45.5 29.4 44 35 44.7 34.7 41 32.2 34.4 32.6 30.2 32.7 31.8 33.3 35.7 33.5 37 35 36 38 36.6 39.5 36 37.4 31 38 25.2 35.6 21.2 34.4 19 29.7 19.5 28.2 17.4 25.6 19 22.6 18 19.6 17z" class="shirt"/><path d="M25.5 1.4C20.2 1.4 19.7 8.4 21 10 22.3 11.3 26.6 12 28 10.6 30.3 8.4 31 1.4 25.5 1.4z" class="hair0"/><path d="M20.6 8.8C21.6 12 21.3 19 21 21 24.2 19.7 26.7 11.4 28.6 10 29.6 9.3 20.6 6.4 20.6 8.8z" class="hair1"/><path d="M14 58.8C14.2 58.7 14.7 58 14.6 58 14.3 58 13.2 58 13 58 13 58.2 13.7 58.8 14 58.8z" class="nail"/><path d="M15.3 57.3C17 58 16.7 59 17 60.2 16.7 63 16.5 66 16.2 68.7 14.2 69.2 12.3 69.3 10 69 10 66.4 10 63.8 10 61.2 10.5 59.8 11.2 58.5 12.3 58 12.4 58 12.4 58.2 12.6 58.4 11.5 59.2 11 60 10.7 61 12.8 61.2 14.6 61 16.3 60.3 16 59.4 16.3 58.4 15.2 58 15.2 57.8 15.2 57.5 15.3 57.3z" class="item fin"/></svg>