<svg width="50" height="100"><style>svg { stroke-width: 0.5px; } .no-item, .item { fill-opacity: 0.5; } .hair0 { fill: #ff8; stroke: #ff8; fill-opacity: 0.5; } .hair1 { fill: black; stroke: black; fill-opacity: 0.5; } .hair2 { fill: #884; stroke: #884; fill-opacity: 0.5; } .skin { fill: #da8; stroke: #754; } .shirt { fill: red; stroke: #800; fill-opacity: 0.5; } .trousers, .top  { fill: blue; stroke: #008; } .eye { fill: black; } .mouth { fill: #800; } .nail { fill: #da8; stroke: #754; } .metal { fill: silver; } .glass { fill: #f80; fill-opacity: 0.5; stroke: #f80; } .plastic { fill: #8af; fill-opacity: 0.5; stroke: blue; } .fin { fill: #808; stroke: #404; } .ice-cream-cone { fill: #f80; stroke: #840; } .ice-cream { fill: #d62; stroke: #631; } .book { fill: #fff; stroke: #000; } .ball { fill: #f0f; } .parasol { fill: #f00; stroke: #800; } .towel { fill: #808; stroke: #404; } .type0, .type1, .type2 { opacity: 0.3; } .water { fill: #88f; fill-opacity: 0.7; }</style><path d="M13.5 38.4C15.2 35.6 14.7 30.4 15 26.6 14.5 29 17 36.3 16 39.4 14.8 42.8 15.8 44.7 15.8 48.6 14.2 54.6 16.2 60.6 17.6 68.2 15 75 18.7 85 19.8 91.8 20.2 94.5 16.6 94.8 15.5 97 15 97.6 16.7 99 17.5 98.8 19.8 98.6 23 96.8 23.7 95.3 24.3 94 22 88.4 23.2 83 24.5 77 24.4 70 24 68.6 24 67 24.7 54.8 25 53.4 26 55 25 62.2 26.3 68.6 25 74 28 84.2 26.7 91.2 28.2 94 26.3 98.2 27 99.3 27.6 100 31.7 99.4 32 98.5 32.4 96.7 30.3 94 30.4 92 30.6 87.8 31.7 83.5 32.6 79.3 33.3 76.2 33.8 72.5 32.7 68.4 34.8 61 35.6 57.7 34.2 49 33.8 45 34.8 44.2 34 40.3 33.5 38 35 29.7 35.3 26.6 35.7 27.6 36 34.2 37 37.8 37 40.7 37 42.2 38 45 38.7 47.5 39.5 50.4 40.4 50.7 40 51.4 41.2 58.6 43 58.6 44 58.7 45 58 44.4 53.5 44.3 52.5 47 55.6 47.3 54 41.5 50.3 44.7 41 41.4 37.6 41.5 32.8 41.2 17.5 33.8 16.3 32 16 30 15 28.8 14.5 28 14 28.6 13.6 28.5 11.6 29 11 30 9 29.8 7.3 29.4 4.3 28.7 1.3 25.4 1.2 21.2 1 20.8 4.2 20.6 7.2 20.5 8.6 21.7 10 22 11.4 22 12.5 22 14 21.7 14.3 20.5 15.5 18.2 16 16.6 16.4 14.3 17.2 12.5 17.7 11.7 23 10.2 25.4 8.7 31 9 36.8M25 7C24 9 25 9 25.6 9" class="skin"/><path d="M9 36.6C8 39 7.2 45.4 7.3 50.2 6 52.2 3.5 53 3.7 53.6 3.8 55.6 5.4 53.5 6.3 53.4 5.3 56 5.8 58.3 7.6 58.3 9.6 58.3 10 56 10.2 50.2 13.6 45.3 13.3 41.2 13.5 38.2" class="skin noitem"/><path d="M24.2 10.2C24.5 11.3 25.7 11.4 26 10L24.2 10.2z" class="mouth"/><path d="M22.8 7C22.8 6.4 24.2 6.4 24.2 7 24.2 7.4 23 7.4 22.8 7z" class="eye"/><path d="M26 7C26 6.6 27.4 6.6 27.4 7 27.4 7.5 26 7.6 26 7z" class="eye"/><path d="M15.7 97.2C15.6 97 16 96.4 16 96.6 16.6 96.8 18.4 98 18.4 98.3 18.3 98.6 17.7 98.7 17.4 98.5 16.7 98.2 16 97.8 15.7 97.2zM27.3 98.5C28.7 98 30.5 98 31.6 98 32 98 31.8 98.6 31.4 98.7 30 99.2 28.7 99.4 27.4 99.2 27 99.2 27 98.5 27.3 98.5z" class="nail"/><path d="M22 6.3L20.6 6.4 20.5 7 22 7 22 6.3zM28 6.3L29.7 6.5 29.8 7.2 28 7 28 6.3z" class="glasses metal"/><path d="M22 6.8C22 5 24.5 6 25 6 25.6 6 28 4.8 28 6.8 28 9 26.2 7.6 25 7.6 23.6 7.7 22.2 8.8 22 6.8z" class="glasses glass"/><path d="M20.4 15C18.7 17 16 20.2 15.5 21.8 14.6 24 16.6 27.3 17.2 29 17 27 20.2 26 21.7 25.7 23 25.5 24 25.3 25.5 25.4 28 25.4 30.7 26.5 32.5 28 33 26.3 33.6 23.5 33 21.5 32.4 19.3 30.8 16.3 29.4 14.7 29.2 14.8 28.8 15 28.7 15.4 29.2 16.3 29.3 17.5 29 18 28.5 19.6 27.8 22.5 25.7 24 24.4 25.2 23 24.7 21.6 24.7 19.8 24.7 18.4 21.4 18.4 19.7 18.4 18.3 21.3 16 21.7 15.4 21.5 15.2 20.8 15 20.4 15z" class="top"/><path d="M15.2 48.3C14.8 55 16 61 16.8 67.5 19.5 68 21.6 67.5 24.4 68.2 24.5 64.3 24.8 59 24.8 55 25 59 25.6 64.5 25.5 68.5 28 68.5 31.3 68.8 33.7 68.6 34.7 61 36.3 55 35 47 27.4 48 22.5 50.5 15.2 48.3z" class="trousers"/><path d="M20.6 14.3C16.5 15.7 14 16.5 13 17.6 10 20.4 10.2 28 8.3 32.5 11 33 12 34.4 14.6 35.8 15.3 34.2 14.3 30.7 15 29.2 15.7 31.4 16.3 34 16 36.3 15.8 40 15 45 14.5 48.6 21.4 50.3 28.5 48.2 35.7 47.7 36 44.2 36.5 42.6 34.7 39.2 33.6 37.2 35 30.7 35 28.4 35.7 30.2 34.8 33.3 35.8 35 37.6 33 40.8 33.8 42.3 32 40.6 28 40.3 20.6 38 17.4 37 16 31 14.7 29.6 13.5 26.2 15 23.8 15.6 20.6 14.3z" class="shirt"/><path d="M25.3 1.2C21 1.3 20.5 4.8 21 6.3 21 7 20.2 7.5 20.6 6.7 21.5 5 21 4.8 22.3 3.4 23.2 2.3 27.5 2.5 28.3 3.7 29 5 28.4 4.4 29 5.7 29.4 6.2 30 7.3 29.7 6.8 28.8 3.8 29.3 1.3 25.3 1.2z" class="hair0"/><path d="M22 5.2C24.2 4.5 26.8 4.4 28.3 5 29.4 5.6 29.2 7.5 30 7.6 31 7.7 30 3.7 29.3 2.3 28.4 0.3 22 0.3 20.7 2.8 20 4.2 19 7.6 19.8 7.6 21 7.7 21 5.5 22 5.2z" class="hair2"/><path d="M19.7 5.5C19.4 7.2 19.4 13 19 13.6 21 13 20.6 8 21.5 5.5 21.8 4.7 19.6 4.5 19.7 5.5z" class="hair1"/><path d="M29 5.8C29.5 7.6 28.5 11.6 29.3 12.4 30.2 12.4 30.3 8 30.4 6.4 30.5 5.8 28.8 5.3 29 5.8z" class="hair1"/><path d="M19.7 22C21 18.4 25 19.2 25 23.2" class="item ice-cream"/><path d="M19.5 22L20.8 32.2 25.2 23.2 19.5 22z" class="item ice-cream-cone"/><path d="M9 36.6C9.8 32 15 28.4 19 25.6 20 24.8 22 25.7 24 26 25.5 26.2 26.8 29.5 25 30.5 24 31 20.7 29.3 19.3 30.2 17 32 13.8 35 13.7 38.4 12 38.7 9.4 38 9 36.6z" class="skin item"/></svg>