<svg width="100" height="50"><style>svg { stroke-width: 0.5px; } .no-item, .item { fill-opacity: 0.5; } .hair0 { fill: #ff8; stroke: #ff8; fill-opacity: 0.5; } .hair1 { fill: black; stroke: black; fill-opacity: 0.5; } .hair2 { fill: #884; stroke: #884; fill-opacity: 0.5; } .skin { fill: #da8; stroke: #754; } .shirt { fill: red; stroke: #800; fill-opacity: 0.5; } .trousers, .top  { fill: blue; stroke: #008; } .eye { fill: black; } .mouth { fill: #800; } .nail { fill: #da8; stroke: #754; } .metal { fill: silver; } .glass { fill: #f80; fill-opacity: 0.5; stroke: #f80; } .plastic { fill: #8af; fill-opacity: 0.5; stroke: blue; } .fin { fill: #808; stroke: #404; } .ice-cream-cone { fill: #f80; stroke: #840; } .ice-cream { fill: #d62; stroke: #631; } .book { fill: #fff; stroke: #000; } .ball { fill: #f0f; } .parasol { fill: #f00; stroke: #800; } .towel { fill: #808; stroke: #404; } .type0, .type1, .type2 { opacity: 0.3; } .water { fill: #88f; fill-opacity: 0.7; }</style><path d="M0.2 43C0 43 3.7 40.3 6.3 41 14 42.4 20 38 31 41.5 36 43.2 47.2 38.5 52.7 38.2 56 38 57.2 42.6 64.7 40.3 69 39 73.2 32.3 78 31.4 81.2 31 80.3 24.4 84 24 88 23.8 91.7 25 91.8 28.7 92 32 89.5 35.8 87.3 37.2 86 38 85 36 84 37 82.7 39 81.5 43.3 80 46 79.8 46.5 85.3 46.4 91 46 93.6 43.2 97.2 45 98 45.2 99.4 45.6 94.6 47 91.3 47.6 85.7 48.6 77.8 48.4 77.6 48.8 73 48.4 71 50.3 66.8 49.5 63.2 49.3 55 47 50.5 49 38 46.5 23.8 47.5 8.3 43.8 5.5 44.5 2.2 45 0.2 43z" class="skin"/><path d="M9 49C11.6 46.4 11.6 43.8 12.6 44 19 45.4 24 41.8 28.7 42.4 37.4 43.7 43.3 44.2 50.4 40.7 53 39.3 57.8 47.3 56 48.2 50.2 51 41 46.6 30.4 48.2 25 48 19 49.2 13.7 47.7 11.3 50.6 8 50 9 49z" class="skin"/><path d="M67.7 38.6C69.3 40 71.3 43.5 73.2 44 75.3 44.7 78.7 42 79.2 42.6 82 46.7 74.5 50.7 73.8 49 72.5 46.2 69.8 42.2 67.2 39 67.6 38.7 67.2 39 67.7 38.6z" class="top"/><path d="M95.7 41L98 44.5 94 43 90.6 46 93 48 97.8 44.5 94.2 43.2 95.7 41z" class="item book"/><path d="M81.3 34C86 34 81.7 44.4 84 46.5 85.7 48 92 46.8 95.2 46.8 97.2 46.8 97.8 44.2 98.5 45 98.8 45.2 98 47.8 96.4 49.5 95.5 50.5 92.8 49 91 49 87.4 49.2 80.2 50.6 79 48.7 77.7 46.5 78.7 43.2 78.5 38 78.4 36.5 80.3 34 81.3 34z" class="skin"/><path d="M85.5 34C84.3 34 84.3 31.3 85.6 30.8" class="skin"/><path d="M89.8 33C89.5 33 89.3 33.6 89.4 33.8 89.4 34 90 33.2 89.8 33z" class="eye"/><path d="M88.4 36.2C88 36.2 87 35.2 87 35.2 87 35 88.3 36 88.8 35.8 89 35.7 88.7 36.3 88.4 36.2z" class="mouth"/><path d="M58.8 40.6C59.5 43 59.5 46.7 58.5 48.5 50.2 50 46.4 48.7 40.3 48.2 40.6 46.8 40 44.3 40 43.2 42 43.3 47.5 42.3 48.8 42 46.6 42.5 41.8 43.6 39.4 43.4 39.6 42.7 39.5 42.3 39.4 41 43.2 40.4 48 38.5 52.4 38 54.5 38 55.2 39.3 58.8 40.6z" class="trousers"/><path d="M77.2 31.6C79 31.2 81.4 33 82.7 34.4 85.2 37 82.5 43.4 84 46.3 80 47.3 80 47 78.6 47.8 77.6 46.4 78.7 40.7 78.5 39 78.4 42.2 78.7 44.3 78.5 47.5 77.3 49.6 69.6 50.2 66.8 49.6 63 49 59.3 48.5 58.4 48.5 58.8 46.6 59.4 44 58.7 40.6 61.5 41.5 66.7 40.3 69.3 37.3 71 35.2 74.8 32 77.2 31.6z" class="shirt"/><path d="M86.7 31L90 33.3 90 33.5 86.5 31.2 86.7 31z" class="glasses metal"/><path d="M90.8 32.5C91.4 32.8 90 35 89.5 34.8 89.4 34.7 90.5 32.3 90.8 32.5z" class="glasses glass"/><path d="M92 28.7C92.4 27 90.8 24 85.3 23.8 81.5 23.7 81 26.8 80 28.2 79.5 29.2 79 30.8 80.2 31 82.6 31.5 91.6 31.2 92 28.7z" class="hair0"/><path d="M80.3 28C79 30.7 74.6 31.4 72.8 34.2 72 35.4 79.7 31.2 83 31.2 84 31.2 81 27 80.3 28z" class="hair1"/><path d="M10 48.7C9.6 48.6 9 49.3 9.3 49.5 9.5 49.8 10.4 49.7 10.6 49.5 10.7 49.3 10.3 48.8 10 48.7z" class="nail"/></svg>