<svg width="100" height="50"><style>svg { stroke-width: 0.5px; } .no-item, .item { fill-opacity: 0.5; } .hair0 { fill: #ff8; stroke: #ff8; fill-opacity: 0.5; } .hair1 { fill: black; stroke: black; fill-opacity: 0.5; } .hair2 { fill: #884; stroke: #884; fill-opacity: 0.5; } .skin { fill: #da8; stroke: #754; } .shirt { fill: red; stroke: #800; fill-opacity: 0.5; } .trousers, .top  { fill: blue; stroke: #008; } .eye { fill: black; } .mouth { fill: #800; } .nail { fill: #da8; stroke: #754; } .metal { fill: silver; } .glass { fill: #f80; fill-opacity: 0.5; stroke: #f80; } .plastic { fill: #8af; fill-opacity: 0.5; stroke: blue; } .fin { fill: #808; stroke: #404; } .ice-cream-cone { fill: #f80; stroke: #840; } .ice-cream { fill: #d62; stroke: #631; } .book { fill: #fff; stroke: #000; } .ball { fill: #f0f; } .parasol { fill: #f00; stroke: #800; } .towel { fill: #808; stroke: #404; } .type0, .type1, .type2 { opacity: 0.3; } .water { fill: #88f; fill-opacity: 0.7; }</style><path d="M81 47.5C75 44.5 63.3 28 61.7 28.3 55.6 29.3 51 37.2 44.8 40.2 41.6 41.7 33.7 40 30.2 39.5 24 38.7 21.2 42 16.3 42 15.4 42 16.5 40 16.2 39.2 16 38.7 15 38.3 14.8 37.5 14.8 37 14.3 37 14 36.8 13.7 36.4 14 36 14 35.6 13.7 35 12 35.8 11.2 35.8 9.7 35.8 9.3 34 8 34.2 6.3 34.6 3.5 38.6 3.6 40.5 3.6 41.7 3.4 43 4.5 43.8 7 45.4 8.3 43.3 10.8 44.8 16.5 48 28.4 47.7 35.8 48 42.4 48.3 47.6 47 53.7 46.6 57.5 46.4 57.6 36.7 61 36.6 65.5 40.2 67.8 44.5 72.5 47 74.7 48 82 49 81 47.5z" class="skin"/><path d="M47.7 41C54.3 40.4 61 42 68 42 73 44.8 82.6 46 89.5 45.2 92.5 44.8 94.5 43.4 97.7 42.7 98.5 42.6 99.5 44.5 99 45.2 97 47.7 93.2 50.8 89.6 50.7 83.7 50.5 73 48 64.5 47.2 51.6 47.8 50 47 45.5 47.5" class="skin"/><path d="M11.2 36.7C10.4 37 10.3 37.5 10.3 37.8 10.4 38 11.3 37.4 11.2 36.7z" class="eye"/><path d="M15.2 38.3C15 39 13.6 39 13.6 39.2 13.7 39.2 15.2 39 15.5 38.6 15.6 38.4 15.2 38.2 15.2 38.3z" class="mouth"/><path d="M22.7 46.4L23.7 43C23.6 42 22 40.7 22.5 40.3 23.5 39.6 27.3 39 27.5 39.4 27.7 40 25.8 42.7 24 43.2L23 46.5 22.7 46.4z" class="top"/><path d="M39.8 48C40.3 46.2 41.2 44.4 42.8 40.6 46.5 40.2 50 36.3 52 34.5 53 37 57 40.8 57.8 41 57.8 41.3 50.3 40.7 48 40.8 50.2 40.6 58.3 41.3 58.5 41.2 58.6 43.2 58 46.8 58.3 47.5 52.8 47.4 45.2 47.4 39.8 48z" class="trousers"/><path d="M12.3 45.6C13.7 44.5 14.8 43.2 16 41.8 17 42.3 22 40.2 26.5 39.4 32 38.4 37 41.5 43 40.5 41.8 43.3 43 48.3 40 48.2 40 48.2 25 48 21.2 47.5 21.6 47 22.6 44.8 22.6 44.8L19 44.2 22.7 44.8 21.2 47.5C18 47 15.2 46.5 12.3 45.6z" class="shirt"/><path d="M31 39L29.3 41 36 43 38.2 40 31 39z" class="item book"/><path d="M22.7 45C24.6 46 29 45.7 31 45.3 37 44 35 41.6 39.4 39.4 41.2 38.5 44.6 39.3 44.5 40.3 44.5 41 42.3 41.8 39.8 41.6 38.3 44.3 36 47.4 34 47.8 30 48.8 25.5 48.7 21.4 47.5" class="skin"/><path d="M10.3 35C10.2 34.4 8.8 33.6 8 33.6 5.6 33.8 2.7 37 1.8 39 1 40.5 2 43.3 3 44 4.5 45 8 44.7 10 44 10 44 11 43.8 10.2 43.2 9.4 42.5 7.5 43 7 42 6.5 41 8.3 38.3 7 36.6 6.5 35.8 10.4 35.6 10.3 35z" class="hair0"/><path d="M10.3 43.3C12.2 45.5 17 46.3 19 46.8 20.2 47 13.3 47.4 12 47 10.8 46.4 10.7 44.6 8.3 44.4 6 44.3 10 43 10.3 43.3z" class="hair1"/><path d="M7.4 41.3C6.7 42.2 8.2 43.6 10.2 42.6" class="skin"/><path d="M7.3 41.3L10 38.3 9.7 38.2 7.2 41.2 7.3 41.3z" class="glasses metal"/><path d="M10 38.3C10.6 38.8 12 36.3 11.2 36 10.6 35.5 9 37.7 10 38.3z" class="glasses glass"/><path d="M43.6 39.7C43.7 39.6 44.2 40 44.3 40.3 44.3 40.5 44 41 44 40.7 43.6 40.6 43.5 40 43.6 39.7zM97.3 43.2C97.3 43 97.8 43 98 43 98.5 43.5 98.7 44 99 44.8 99 45 98.6 45.4 98.5 45.3 98 44.8 97.5 44 97.3 43.2z" class="nail"/></svg>