<svg width="100" height="100"><style>svg { stroke-width: 0.5px; } .no-item, .item { fill-opacity: 0.5; } .hair0 { fill: #ff8; stroke: #ff8; fill-opacity: 0.5; } .hair1 { fill: black; stroke: black; fill-opacity: 0.5; } .hair2 { fill: #884; stroke: #884; fill-opacity: 0.5; } .skin { fill: #da8; stroke: #754; } .shirt { fill: red; stroke: #800; fill-opacity: 0.5; } .trousers, .top  { fill: blue; stroke: #008; } .eye { fill: black; } .mouth { fill: #800; } .nail { fill: #da8; stroke: #754; } .metal { fill: silver; } .glass { fill: #f80; fill-opacity: 0.5; stroke: #f80; } .plastic { fill: #8af; fill-opacity: 0.5; stroke: blue; } .fin { fill: #808; stroke: #404; } .ice-cream-cone { fill: #f80; stroke: #840; } .ice-cream { fill: #d62; stroke: #631; } .book { fill: #fff; stroke: #000; } .ball { fill: #f0f; } .parasol { fill: #f00; stroke: #800; } .towel { fill: #808; stroke: #404; } .type0, .type1, .type2 { opacity: 0.3; } .water { fill: #88f; fill-opacity: 0.7; }</style><path d="M47.2 25.5L42.5 32.3C33 33.5 33.2 30.3 21 32.6L16.2 17.7 82.4 17.3 76.6 29.8C65.7 31.5 63.8 29.2 50 31L47.2 25.5z" class="parasol"/><rect width="1.7" height="96.5" x="47.4" y="3.5" fill="#260303"/><path d="M4.7 24L5 31.7C18.4 32 27 27 41.5 26.8L48.5 21 53.6 26.4C68.4 24.2 79 28.3 93 26.4L92.4 20.7C61.3 17.8 35.2 19 4.7 24zM5 23.5C26.2-1.5 61.8-0.3 92 20.6 48.5 17.5 43 19.7 5 23.5z" class="parasol"/></svg>