<svg width="50" height="100"><style>svg { stroke-width: 0.5px; } .no-item, .item { fill-opacity: 0.5; } .hair0 { fill: #ff8; stroke: #ff8; fill-opacity: 0.5; } .hair1 { fill: black; stroke: black; fill-opacity: 0.5; } .hair2 { fill: #884; stroke: #884; fill-opacity: 0.5; } .skin { fill: #da8; stroke: #754; } .shirt { fill: red; stroke: #800; fill-opacity: 0.5; } .trousers, .top  { fill: blue; stroke: #008; } .eye { fill: black; } .mouth { fill: #800; } .nail { fill: #da8; stroke: #754; } .metal { fill: silver; } .glass { fill: #f80; fill-opacity: 0.5; stroke: #f80; } .plastic { fill: #8af; fill-opacity: 0.5; stroke: blue; } .fin { fill: #808; stroke: #404; } .ice-cream-cone { fill: #f80; stroke: #840; } .ice-cream { fill: #d62; stroke: #631; } .book { fill: #fff; stroke: #000; } .ball { fill: #f0f; } .parasol { fill: #f00; stroke: #800; } .towel { fill: #808; stroke: #404; } .type0, .type1, .type2 { opacity: 0.3; } .water { fill: #88f; fill-opacity: 0.7; }</style><path d="M25 1C20 0.7 18.5 5 18.6 7.7 18.7 10.3 19 12.5 20.3 14.8 22.4 18.2 19.4 22.6 19.8 26.6 20 29.3 20.4 32.2 20.2 34.8 20 38.8 19 42.7 18.7 46.8 18.5 48.8 19 50.6 19.2 52.6 19.4 58 20.3 63.6 20 69 17.3 75.3 21.2 96.4 20.2 98.8 22.4 99 28 99.3 28 98.5 28.3 97.3 23 96.6 23 94.7 22.4 87 25.2 78 25.8 69.6 25.3 64.5 23 59.5 23.5 54.7 24 51 27.5 48.3 29.8 45.3 32.7 41.7 31 36.2 31 31.6 31 25.3 27.3 19.8 26.7 14.6 26.5 12.8 30 12 30 10.2 30.2 9.3 28.8 7.7 30.3 7.5 30.7 7.4 30 6.2 29.8 5.8 29.3 3.5 28 1.3 25 1z" class="skin"/><path d="M19 50C22.3 56.3 24 61.2 25.4 69.7 20.4 75.7 23.6 88.4 18.4 92.3 20.7 95 24 99.2 27.2 99.6 28.6 99.8 31.5 98.3 30 98 26.6 97.5 25.7 94 25.6 91.3 25.3 83.7 30.6 75 33.3 68 33.3 60.6 32 53 29.5 45.6" class="skin"/><path d="M27.8 5.2C28.3 5.2 28.6 5.6 28 5.6 27.4 5.5 27.4 5.2 27.8 5.2z" class="eye"/><path d="M22.6 5.6L26 5 26 6 22.2 6.6 22.6 5.6z" class="glasses metal"/><path d="M26 5.6C26 4.2 30 3.3 29.6 5.3 29.2 8 26.2 7.2 26 5.6z" class="glasses glass"/><path d="M23.5 6.7C22 5.3 21.3 12 23 10.6" class="skin"/><path d="M29.7 11C28.8 11 27.5 10.6 27.6 10.4 27.7 10.3 29 11 30 10.5 30.2 10.4 30 11 29.7 11z" class="mouth"/><path d="M19.4 39.8C22.5 40.4 26.5 42 29.7 44.4 31 49.5 33 57.6 33.5 61.3 30.3 61.5 26.5 63.7 24 63.4 23 60 19.6 51.6 18.8 50.3 19.4 52 20 61.5 20 65.5 21.2 65.4 22.8 65.5 25 66.2 23.7 62.8 21.8 55.7 18.6 50.3 18.2 49.6 18.5 43.5 19.4 39.8z" class="trousers"/><path d="M20.5 14.3C22 13.2 25 14 26.8 14.8 27.7 18.6 30.7 25.2 31 30 31 35.3 32.5 42.3 30.2 45.2 25.6 42 23.8 40.8 19 40 20.7 34 18.4 21.3 20.5 14.3z" class="shirt"/><path d="M35 29C34 25.2 41 26.6 39.4 30.8L35 29z" class="ice-cream item"/><path d="M37.5 38.5L39.4 30.8 35 29 37.5 38.5z" class="item ice-cream-cone"/><path d="M20.6 15C20 19.4 18.3 26.8 20.2 30.8 22.2 34.7 30 34.7 35 36.5 36.7 37 39.4 38 39.6 37.3 39.8 36.7 37.6 34.6 36.4 34 32.3 31.8 25 32.2 23.7 28.8 22.6 26 25.8 18.6 25.5 14.6 25.5 13.7 20.7 13.5 20.6 15z" class="skin"/><path d="M27.8 19.2C29 20.2 30.2 25.6 30.4 27 30.5 28.7 28.7 26.6 27.3 26.8 26.4 27 23.8 29 23.7 28.6 23.5 28 27 27 27 26 27.4 23.8 27.4 19 27.8 19.2z" class="top"/><path d="M25.8 14.3C21.8 13 21.3 14 20.5 14.2 19.5 19.3 19 25.8 19.3 28.4 19.5 30.8 21.5 33.2 23.7 34 24.5 32.8 26.4 32 26.4 31 25 30 24 30 23.7 28.4 23.2 24.5 25.2 19.8 25.8 14.3z" class="shirt"/><path d="M24 0.8C21.8 0.8 20.4 1.7 19.3 3.8 18.6 5 18.2 8.3 18.5 9.3 19 10.7 23.2 7 24.6 6 25.5 5.4 24.2 5 25 4 26 3 29.2 3.8 29 3.4 28.3 1.8 25.8 0.8 24 0.8z" class="hair0"/><path class="hair2" d="M19.3 3.8C18.6 5 18 9 18.5 9.8 19.2 11 23.5 9.8 25 8.7 25.8 8 24.2 5 25 4 26 3 20.4 1.7 19.3 3.8z"/><path d="M18.4 9C18.5 13.2 15.6 19.5 16 19.7 17 20 19.8 14.5 22.5 13 24 12 24.4 10 25 8.3 25.5 7.3 18.4 7.2 18.4 9z" class="hair1"/><path d="M29.2 98C29.3 98 30 98.2 30 98.4 30.2 98.5 29.8 98.8 29.6 98.8 29.4 98.7 29 98.2 29.2 98z" class="nail"/></svg>