<svg width="100" height="50"><style>svg { stroke-width: 0.5px; } .no-item, .item { fill-opacity: 0.5; } .hair0 { fill: #ff8; stroke: #ff8; fill-opacity: 0.5; } .hair1 { fill: black; stroke: black; fill-opacity: 0.5; } .hair2 { fill: #884; stroke: #884; fill-opacity: 0.5; } .skin { fill: #da8; stroke: #754; } .shirt { fill: red; stroke: #800; fill-opacity: 0.5; } .trousers, .top  { fill: blue; stroke: #008; } .eye { fill: black; } .mouth { fill: #800; } .nail { fill: #da8; stroke: #754; } .metal { fill: silver; } .glass { fill: #f80; fill-opacity: 0.5; stroke: #f80; } .plastic { fill: #8af; fill-opacity: 0.5; stroke: blue; } .fin { fill: #808; stroke: #404; } .ice-cream-cone { fill: #f80; stroke: #840; } .ice-cream { fill: #d62; stroke: #631; } .book { fill: #fff; stroke: #000; } .ball { fill: #f0f; } .parasol { fill: #f00; stroke: #800; } .towel { fill: #808; stroke: #404; } .type0, .type1, .type2 { opacity: 0.3; } .water { fill: #88f; fill-opacity: 0.7; }</style><path d="M18.4 38.3C19.3 39.6 22.6 36.4 24.5 37.7 27.8 40 31.4 44.4 35.2 46.3 40 48.6 46.4 49.3 52 49.2 59.4 49 67.3 48 74 45.7 77 44.7 77.8 39.2 81.2 39 85.4 38.5 99.2 51 99.5 46.6 99.7 45 97 43.3 96.4 42.8 93 39.8 87.7 34.6 82.5 33.5 83 32.7 82.7 30.7 85 30.8 83.7 28.6 84.5 26 84 24.7 83 22 76.8 20.3 75 22.4 74 24 74.5 27.8 73.3 32 69.2 34.4 68 33.2 65 34.8 62.4 36.2 59 35.2 55.8 35.8 51.8 36.7 47.6 36.6 41.6 38 38 39 35.5 40 32.7 39.2 29.8 38.4 27 34.8 24.4 32.7 20.8 35 17.5 37.2 18.4 38.3z" class="skin"/><path d="M24 32.4C24.4 32.2 25.6 33.2 25.2 33.3 22.4 34 20.5 36.6 18.4 37.4 17.8 37.6 18 38.4 18 37.8 17.7 36 22 34.2 24 32.4z" class="item fin"/><path d="M39.6 38.6C35.7 39.4 31.7 41.8 28 42 23.8 38 17.8 38 16 34.3 11.4 33.6 6.6 35 4 38.5 3.5 39.3 3.6 42 4.4 42 7 42.4 11.8 39 15 39.8 19.2 41 22.2 46.3 26.6 47.7 31 49 37.2 47 42.2 48.5" class="skin"/><path d="M82.6 28.6C82.2 28.6 82.2 29.3 82.8 29.3 83.3 29.4 83 28.6 82.6 28.6z" class="eye"/><path d="M82.8 32C81.4 32.7 80.5 32 80.4 32 80.4 32.2 82 32.8 82.7 32.6 83 32.6 83 32 82.8 32z" class="mouth"/><path d="M74.2 28L81 28.4C82 27 84.3 27.6 84.3 29 84.4 30.6 81.6 31 80.6 30L74 29.3" class="glasses plastic"/><path d="M84.5 26.3C84.3 27 82 27.6 81 27.5 79.6 27.4 78.3 24.8 77 25 75.8 25 73.6 29 73.3 28.4 73 27.7 74.3 22.5 75.2 22 81.7 19.2 84.5 24.7 84.5 26.3z" class="hair0"/><path d="M73.5 25.8C73.2 27.4 61.6 34 62 34.8 62.5 36.2 70.5 34 72.3 32 74 30.4 73.6 28 75.2 26.3 76.7 24.6 74 24.2 73.5 25.8z" class="hair1"/><path d="M55.7 35.8C49.8 35.5 45 37 39.6 38 38 42 40.8 45 40.7 48.6 47.2 50 54 49.6 60.8 49.2 58.5 45 56.5 40.5 55.7 35.8z" class="trousers"/><path d="M71.5 46.5C70.4 46 69.3 39.8 70.3 39 71.2 38.3 77 40.7 77.5 42 78 43.3 73.3 47.4 71.5 46.5z" class="top"/><path d="M74.8 38.2C71.8 41.3 64 41.4 60.3 42.6 57.5 43.6 45.7 48.6 42 48.3 41.6 48.3 42.7 47.5 42.7 47.4 42.6 47.2 41 48 40.8 47.8 39.5 45.3 49.7 39.7 60 38.3 67.3 37.4 64.7 33.8 72.7 32.4" class="skin"/><path d="M41.3 46.4C41.4 46.6 41.4 47 41.6 47.5 41.7 47.6 41 47.6 41 47.5 40.8 47 41.2 46 41.3 46.4zM42.4 48C42.6 48 42.7 48 42.6 48 42.4 48 42.3 48.2 42.2 48.2 42 48 42.2 48 42.4 48zM4.6 38.3C4.5 38 4.2 38.7 4 39 4 40 3.8 41 4.4 41.8 4.7 42 5.2 42.2 5.2 41.8 5.3 41.5 5 39.5 4.6 38.3z" class="nail"/><path d="M16.3 33.7C11.8 33 5.6 35.6 2.3 38.6 -1 41.3 0.8 44.6 2.4 44 6.2 42.3 10 40.6 14.7 40 15 40 14.3 39 14 39 11.8 38.6 9.2 40.8 6.6 41 5.5 41 5.2 39 5.8 38 7.5 35 15 37.6 16.6 34.6 16.7 34.3 16.5 33.8 16.3 33.7z" class="item fin"/></svg>