<svg width="100" height="50"><style>svg { stroke-width: 0.5px; } .no-item, .item { fill-opacity: 0.5; } .hair0 { fill: #ff8; stroke: #ff8; fill-opacity: 0.5; } .hair1 { fill: black; stroke: black; fill-opacity: 0.5; } .hair2 { fill: #884; stroke: #884; fill-opacity: 0.5; } .skin { fill: #da8; stroke: #754; } .shirt { fill: red; stroke: #800; fill-opacity: 0.5; } .trousers, .top  { fill: blue; stroke: #008; } .eye { fill: black; } .mouth { fill: #800; } .nail { fill: #da8; stroke: #754; } .metal { fill: silver; } .glass { fill: #f80; fill-opacity: 0.5; stroke: #f80; } .plastic { fill: #8af; fill-opacity: 0.5; stroke: blue; } .fin { fill: #808; stroke: #404; } .ice-cream-cone { fill: #f80; stroke: #840; } .ice-cream { fill: #d62; stroke: #631; } .book { fill: #fff; stroke: #000; } .ball { fill: #f0f; } .parasol { fill: #f00; stroke: #800; } .towel { fill: #808; stroke: #404; } .type0, .type1, .type2 { opacity: 0.3; } .water { fill: #88f; fill-opacity: 0.7; }</style><path d="M10.2 42.4C6.7 43.3 6.7 46 7.8 48.8 20.3 47.5 32.6 49.4 45 48.5 47.2 48.3 49.3 45 51 44.8 52.2 44.8 51.5 47.5 52.6 47.6 61.8 48 72 48 79 48.2 83.2 48.3 90 45.7 94.8 49 101.4 38.5 98 24.7 96 10.2 94 11 92 12 90.3 11.7 88.3 11.2 87.8 7.3 85.5 7.4 70.3 8 53.4 11.5 37.8 11 29 10.7 19 7 10.2 5.4 8 8.7 7 11.5 3.5 11.6 -0.3 16 2 20 2 25.6 1.7 34.5 2.4 42 7.8 48.7 6.5 45.6 6.7 43.2 10.2 42.5 5.4 39 8 30.7 1.8 25.6 8 30.7 5.5 39.2 10.2 42.4z" class="towel"/></svg>