<svg width="100" height="50"><style>svg { stroke-width: 0.5px; } .no-item, .item { fill-opacity: 0.5; } .hair0 { fill: #ff8; stroke: #ff8; fill-opacity: 0.5; } .hair1 { fill: black; stroke: black; fill-opacity: 0.5; } .hair2 { fill: #884; stroke: #884; fill-opacity: 0.5; } .skin { fill: #da8; stroke: #754; } .shirt { fill: red; stroke: #800; fill-opacity: 0.5; } .trousers, .top  { fill: blue; stroke: #008; } .eye { fill: black; } .mouth { fill: #800; } .nail { fill: #da8; stroke: #754; } .metal { fill: silver; } .glass { fill: #f80; fill-opacity: 0.5; stroke: #f80; } .plastic { fill: #8af; fill-opacity: 0.5; stroke: blue; } .fin { fill: #808; stroke: #404; } .ice-cream-cone { fill: #f80; stroke: #840; } .ice-cream { fill: #d62; stroke: #631; } .book { fill: #fff; stroke: #000; } .ball { fill: #f0f; } .parasol { fill: #f00; stroke: #800; } .towel { fill: #808; stroke: #404; } .type0, .type1, .type2 { opacity: 0.3; } .water { fill: #88f; fill-opacity: 0.7; }</style><path d="M24.3 46C30.4 46 37.2 47.7 48.8 48 57.4 48 69.3 44.7 78.6 47.2 85.8 49 93.2 49.6 100.4 50.4L0 50C0 50 10 46 24.3 46z" class="water type0"/><path class="water type1" d="M10 34C26.4 20.2 72 47.4 100.4 50.4L0 50C0 50 30.7 35.5 10 34zM9.2 34.6C7.8 34.4 8.4 34 7.8 35.2 8.7 35.3 9 35.3 9.2 34.6z"/><path class="water type2" d="M25.8 31.5C40 31.6 72 47.4 100.4 50.4L0 50C0 50 11.5 31.4 25.8 31.5z"/></svg>